<mxfile host="app.diagrams.net" modified="2022-02-24T04:01:28.455Z" agent="5.0 (Windows NT 10.0; Win64; x64) AppleWebKit/537.36 (KHTML, like Gecko) Chrome/98.0.4758.102 Safari/537.36 Edg/98.0.1108.56" etag="ImduQiBm30i2Jyb7qzeY" version="16.6.3" type="github">
  <diagram id="s21iWj8WBNCYLFZ5jxEV" name="Page-1">
    <mxGraphModel dx="1038" dy="547" grid="1" gridSize="10" guides="1" tooltips="1" connect="1" arrows="1" fold="1" page="1" pageScale="1" pageWidth="827" pageHeight="1169" math="0" shadow="0">
      <root>
        <mxCell id="0" />
        <mxCell id="1" parent="0" />
        <mxCell id="5SVfGLNvyc2B5e1ozDVo-3" value="" style="edgeStyle=orthogonalEdgeStyle;rounded=0;orthogonalLoop=1;jettySize=auto;html=1;" edge="1" parent="1" target="5SVfGLNvyc2B5e1ozDVo-2">
          <mxGeometry relative="1" as="geometry">
            <mxPoint x="289" y="70" as="sourcePoint" />
          </mxGeometry>
        </mxCell>
        <mxCell id="5SVfGLNvyc2B5e1ozDVo-5" value="" style="edgeStyle=orthogonalEdgeStyle;rounded=0;orthogonalLoop=1;jettySize=auto;html=1;" edge="1" parent="1" source="5SVfGLNvyc2B5e1ozDVo-2" target="5SVfGLNvyc2B5e1ozDVo-22">
          <mxGeometry relative="1" as="geometry" />
        </mxCell>
        <mxCell id="5SVfGLNvyc2B5e1ozDVo-6" value="编辑基础属性、包奖励" style="edgeLabel;html=1;align=center;verticalAlign=middle;resizable=0;points=[];" vertex="1" connectable="0" parent="5SVfGLNvyc2B5e1ozDVo-5">
          <mxGeometry x="0.3506" relative="1" as="geometry">
            <mxPoint x="-5" y="-16" as="offset" />
          </mxGeometry>
        </mxCell>
        <mxCell id="5SVfGLNvyc2B5e1ozDVo-2" value="新建、编辑任务包" style="whiteSpace=wrap;html=1;rounded=1;" vertex="1" parent="1">
          <mxGeometry x="234" y="100" width="110" height="40" as="geometry" />
        </mxCell>
        <mxCell id="5SVfGLNvyc2B5e1ozDVo-7" style="edgeStyle=orthogonalEdgeStyle;rounded=0;orthogonalLoop=1;jettySize=auto;html=1;exitX=0;exitY=0.5;exitDx=0;exitDy=0;entryX=0;entryY=0.5;entryDx=0;entryDy=0;" edge="1" parent="1" source="5SVfGLNvyc2B5e1ozDVo-22" target="5SVfGLNvyc2B5e1ozDVo-2">
          <mxGeometry relative="1" as="geometry">
            <Array as="points">
              <mxPoint x="140" y="240" />
              <mxPoint x="140" y="120" />
            </Array>
          </mxGeometry>
        </mxCell>
        <mxCell id="5SVfGLNvyc2B5e1ozDVo-8" value="新建、编辑阶段" style="edgeLabel;html=1;align=center;verticalAlign=middle;resizable=0;points=[];" vertex="1" connectable="0" parent="5SVfGLNvyc2B5e1ozDVo-7">
          <mxGeometry x="0.108" y="1" relative="1" as="geometry">
            <mxPoint x="6" y="17" as="offset" />
          </mxGeometry>
        </mxCell>
        <mxCell id="5SVfGLNvyc2B5e1ozDVo-37" style="edgeStyle=orthogonalEdgeStyle;rounded=0;orthogonalLoop=1;jettySize=auto;html=1;exitX=0.5;exitY=1;exitDx=0;exitDy=0;entryX=0.5;entryY=0;entryDx=0;entryDy=0;" edge="1" parent="1" source="5SVfGLNvyc2B5e1ozDVo-10" target="5SVfGLNvyc2B5e1ozDVo-13">
          <mxGeometry relative="1" as="geometry" />
        </mxCell>
        <mxCell id="5SVfGLNvyc2B5e1ozDVo-10" value="弹出任务编辑表单" style="whiteSpace=wrap;html=1;rounded=1;" vertex="1" parent="1">
          <mxGeometry x="470" y="220" width="100" height="40" as="geometry" />
        </mxCell>
        <mxCell id="5SVfGLNvyc2B5e1ozDVo-21" value="" style="edgeStyle=orthogonalEdgeStyle;rounded=0;orthogonalLoop=1;jettySize=auto;html=1;" edge="1" parent="1" source="5SVfGLNvyc2B5e1ozDVo-13" target="5SVfGLNvyc2B5e1ozDVo-20">
          <mxGeometry relative="1" as="geometry" />
        </mxCell>
        <mxCell id="5SVfGLNvyc2B5e1ozDVo-18" value="完成&lt;br&gt;关闭当前包编辑弹窗" style="whiteSpace=wrap;html=1;rounded=1;" vertex="1" parent="1">
          <mxGeometry x="216.5" y="330" width="145" height="40" as="geometry" />
        </mxCell>
        <mxCell id="5SVfGLNvyc2B5e1ozDVo-33" style="edgeStyle=orthogonalEdgeStyle;rounded=0;orthogonalLoop=1;jettySize=auto;html=1;exitX=1;exitY=0.5;exitDx=0;exitDy=0;entryX=0.5;entryY=0;entryDx=0;entryDy=0;" edge="1" parent="1" source="5SVfGLNvyc2B5e1ozDVo-20" target="5SVfGLNvyc2B5e1ozDVo-22">
          <mxGeometry relative="1" as="geometry">
            <Array as="points">
              <mxPoint x="620" y="410" />
              <mxPoint x="620" y="200" />
            </Array>
          </mxGeometry>
        </mxCell>
        <mxCell id="5SVfGLNvyc2B5e1ozDVo-34" value="返回继续编辑包" style="edgeLabel;html=1;align=center;verticalAlign=middle;resizable=0;points=[];" vertex="1" connectable="0" parent="5SVfGLNvyc2B5e1ozDVo-33">
          <mxGeometry x="-0.5397" y="-1" relative="1" as="geometry">
            <mxPoint y="-32" as="offset" />
          </mxGeometry>
        </mxCell>
        <mxCell id="5SVfGLNvyc2B5e1ozDVo-20" value="完成&lt;br&gt;关闭当前任务编辑弹窗" style="whiteSpace=wrap;html=1;rounded=1;" vertex="1" parent="1">
          <mxGeometry x="452.5" y="390" width="135" height="40" as="geometry" />
        </mxCell>
        <mxCell id="5SVfGLNvyc2B5e1ozDVo-25" style="edgeStyle=orthogonalEdgeStyle;rounded=0;orthogonalLoop=1;jettySize=auto;html=1;exitX=0.5;exitY=1;exitDx=0;exitDy=0;entryX=0.5;entryY=0;entryDx=0;entryDy=0;" edge="1" parent="1" source="5SVfGLNvyc2B5e1ozDVo-22" target="5SVfGLNvyc2B5e1ozDVo-18">
          <mxGeometry relative="1" as="geometry" />
        </mxCell>
        <mxCell id="5SVfGLNvyc2B5e1ozDVo-28" value="编辑修改阶段、任务顺序" style="edgeLabel;html=1;align=center;verticalAlign=middle;resizable=0;points=[];" vertex="1" connectable="0" parent="5SVfGLNvyc2B5e1ozDVo-25">
          <mxGeometry x="-0.306" y="-1" relative="1" as="geometry">
            <mxPoint x="9" y="2" as="offset" />
          </mxGeometry>
        </mxCell>
        <mxCell id="5SVfGLNvyc2B5e1ozDVo-31" style="edgeStyle=orthogonalEdgeStyle;rounded=0;orthogonalLoop=1;jettySize=auto;html=1;exitX=1;exitY=0.5;exitDx=0;exitDy=0;entryX=0;entryY=0.5;entryDx=0;entryDy=0;" edge="1" parent="1" source="5SVfGLNvyc2B5e1ozDVo-22" target="5SVfGLNvyc2B5e1ozDVo-10">
          <mxGeometry relative="1" as="geometry" />
        </mxCell>
        <mxCell id="5SVfGLNvyc2B5e1ozDVo-32" value="新建、编辑任务" style="edgeLabel;html=1;align=center;verticalAlign=middle;resizable=0;points=[];" vertex="1" connectable="0" parent="5SVfGLNvyc2B5e1ozDVo-31">
          <mxGeometry x="0.116" y="-1" relative="1" as="geometry">
            <mxPoint x="-10" y="-1" as="offset" />
          </mxGeometry>
        </mxCell>
        <mxCell id="5SVfGLNvyc2B5e1ozDVo-22" value="&lt;span&gt;新建、编辑&lt;br&gt;阶段、任务&lt;/span&gt;" style="rhombus;whiteSpace=wrap;html=1;rounded=0;" vertex="1" parent="1">
          <mxGeometry x="229" y="200" width="120" height="80" as="geometry" />
        </mxCell>
        <mxCell id="5SVfGLNvyc2B5e1ozDVo-13" value="任务属性、奖励、动作标准" style="whiteSpace=wrap;html=1;rounded=1;" vertex="1" parent="1">
          <mxGeometry x="445" y="310" width="150" height="40" as="geometry" />
        </mxCell>
        <mxCell id="5SVfGLNvyc2B5e1ozDVo-35" value="管理员" style="shape=umlActor;verticalLabelPosition=bottom;verticalAlign=top;html=1;outlineConnect=0;rounded=0;" vertex="1" parent="1">
          <mxGeometry x="279" y="20" width="20" height="30" as="geometry" />
        </mxCell>
      </root>
    </mxGraphModel>
  </diagram>
</mxfile>
